<svg id="Layer_1" data-name="Layer 1" xmlns="http://www.w3.org/2000/svg" viewBox="0 0 710.17 176.39"><defs><style>.cls-1,.cls-4{fill:#27326d;}.cls-2,.cls-3{fill:#0b7b3f;}.cls-3,.cls-4{font-size:69.78px;font-family:Bauhaus93, "Bauhaus 93";}.cls-5{fill:#127f40;}</style></defs><path class="cls-1" d="M387.94,530.12c-25.71,7.9-61.76,12.81-101.69,12.81-78.08,0-141.34-18.71-141.34-41.76,0-5.46,1.93-9.34,5.9-13.16A36,36,0,0,1,162,481l2.93-1.21c33.8-10.89,79.48-15.33,131.84,6.45,0,0-45.44-2.71-45.91,22C250.53,527.5,296.63,537.6,387.94,530.12Z" transform="translate(-144.91 -411.81)"/><path class="cls-2" d="M183.94,469.89c25.72-7.91,61.77-12.81,101.69-12.81,78.08,0,141.34,18.7,141.34,41.75,0,5.46-1.92,9.34-5.9,13.16a35.86,35.86,0,0,1-11.19,7L407,520.24c-33.8,10.89-79.48,15.33-131.85-6.45,0,0,45.45,2.71,45.92-22C321.35,472.5,275.25,462.41,183.94,469.89Z" transform="translate(-144.91 -411.81)"/><text class="cls-3" transform="translate(445.08 104.22)">ONOVAN</text><text class="cls-4" transform="translate(416.42 158.94)">ONTROLS</text><path class="cls-5" d="M583.83,437v59.9c0,15.35-18,18-18,18H474v6.28h-7V488.8h7v7.62h75.08c11.44,0,10.81-10.82,10.81-10.82V446.35c0-12.33-12-11.4-12-11.4H474v9.3h-7V411.81h7v6h90.55C582.09,417.8,583.83,437,583.83,437Z" transform="translate(-144.91 -411.81)"/><path class="cls-1" d="M438.18,486.54v59.9c0,15.35,18,18,18,18H548v6.28h7V538.3h-7v7.62H472.9c-11.68,0-10.81-10.82-10.81-10.82V495.85c0-12.33,12-11.4,12-11.4H548v9.3h7V461.31h-7v6H457.43C439.93,467.3,438.18,486.54,438.18,486.54Z" transform="translate(-144.91 -411.81)"/></svg>